<svg id="visual" viewBox="0 0 900 300" width="900" height="300" xmlns="http://www.w3.org/2000/svg" xmlns:xlink="http://www.w3.org/1999/xlink" version="1.1"><rect x="0" y="0" width="900" height="300" fill="#efefef"></rect><path d="M0 193L38 193L38 209L75 209L75 206L113 206L113 135L150 135L150 267L188 267L188 110L225 110L225 267L263 267L263 234L300 234L300 170L338 170L338 218L375 218L375 157L413 157L413 201L450 201L450 246L487 246L487 181L525 181L525 221L563 221L563 191L600 191L600 121L638 121L638 168L675 168L675 235L713 235L713 192L750 192L750 188L788 188L788 125L825 125L825 87L863 87L863 240L900 240L900 195L900 301L900 301L863 301L863 301L825 301L825 301L788 301L788 301L750 301L750 301L713 301L713 301L675 301L675 301L638 301L638 301L600 301L600 301L563 301L563 301L525 301L525 301L487 301L487 301L450 301L450 301L413 301L413 301L375 301L375 301L338 301L338 301L300 301L300 301L263 301L263 301L225 301L225 301L188 301L188 301L150 301L150 301L113 301L113 301L75 301L75 301L38 301L38 301L0 301Z" fill="#0e0255" stroke-linecap="square" stroke-linejoin="miter"></path></svg>